<svg width="71" height="75" viewBox="0 0 71 75" fill="none" xmlns="http://www.w3.org/2000/svg">
<path d="M0.74939 66.8102H3.42311C4.64142 66.8102 5.52623 66.9733 6.07627 67.2996C6.62695 67.6258 6.90197 68.1441 6.90197 68.8552C6.90197 69.3379 6.78117 69.7337 6.54021 70.043C6.29924 70.3523 5.9786 70.5384 5.57893 70.6012V70.6562C6.12382 70.7704 6.51643 70.9842 6.75739 71.2972C6.99836 71.6101 7.11916 72.0264 7.11916 72.546C7.11916 73.283 6.83643 73.8576 6.26969 74.2702C5.70358 74.6828 4.93443 74.8888 3.96287 74.8888H0.74939V66.8102V66.8102ZM2.57107 70.0098H3.62873C4.12223 70.0098 4.48014 69.9379 4.70118 69.7947C4.92286 69.6509 5.03339 69.4135 5.03339 69.0818C5.03339 68.7725 4.91323 68.5507 4.67226 68.416C4.4313 68.2813 4.05026 68.2142 3.52914 68.2142H2.57107V70.0098V70.0098ZM2.57107 71.3691V73.4745H3.75853C4.25973 73.4745 4.62985 73.3845 4.86953 73.2039C5.10921 73.0232 5.22808 72.7471 5.22808 72.375C5.22808 71.705 4.71853 71.3691 3.70006 71.3691H2.57107V71.3691ZM16.6343 70.8386C16.6343 72.1756 16.2815 73.2039 15.5766 73.9222C14.8717 74.6405 13.861 75 12.5444 75C11.2277 75 10.217 74.6405 9.51208 73.9222C8.80654 73.2039 8.45441 72.1726 8.45441 70.8278C8.45441 69.4829 8.80783 68.4565 9.51529 67.7472C10.2228 67.038 11.2361 66.6833 12.5566 66.6833C13.877 66.6833 14.8865 67.041 15.5863 67.7551C16.2847 68.4698 16.6343 69.498 16.6343 70.8386V70.8386ZM10.3641 70.8386C10.3641 71.7412 10.546 72.4209 10.9109 72.8776C11.2753 73.3344 11.8195 73.5627 12.5444 73.5627C13.9978 73.5627 14.7246 72.6547 14.7246 70.8386C14.7246 69.0189 14.0017 68.1091 12.5559 68.1091C11.8311 68.1091 11.2843 68.3381 10.9161 68.7972C10.5479 69.2564 10.3641 69.936 10.3641 70.8386V70.8386ZM26.2143 70.8386C26.2143 72.1756 25.8616 73.2039 25.1567 73.9222C24.4518 74.6405 23.441 75 22.1244 75C20.8078 75 19.797 74.6405 19.0921 73.9222C18.3866 73.2039 18.0345 72.1726 18.0345 70.8278C18.0345 69.4829 18.3879 68.4565 19.0953 67.7472C19.8028 67.038 20.8161 66.6833 22.1366 66.6833C23.4571 66.6833 24.4666 67.041 25.1663 67.7551C25.8641 68.4698 26.2143 69.498 26.2143 70.8386ZM19.9435 70.8386C19.9435 71.7412 20.1254 72.4209 20.4903 72.8776C20.8547 73.3344 21.3989 73.5627 22.1237 73.5627C23.5772 73.5627 24.304 72.6547 24.304 70.8386C24.304 69.0189 23.5811 68.1091 22.1353 68.1091C21.4105 68.1091 20.8637 68.3381 20.4955 68.7972C20.1273 69.2564 19.9435 69.936 19.9435 70.8386ZM31.3092 74.8888H29.4876V68.236H27.1544V66.8102H33.6424V68.236H31.3092V74.8888ZM40.036 72.6456C40.036 73.3755 39.7571 73.95 39.1987 74.3699C38.6403 74.7898 37.8634 75 36.8687 75C35.9518 75 35.1409 74.8375 34.436 74.5137V72.9223C35.0156 73.1652 35.5065 73.3368 35.9081 73.4365C36.3097 73.5362 36.6766 73.5857 37.0101 73.5857C37.4098 73.5857 37.7163 73.5138 37.9296 73.3706C38.1436 73.2268 38.2503 73.0136 38.2503 72.7296C38.2503 72.5713 38.2034 72.4306 38.1095 72.3067C38.0157 72.1835 37.8776 72.0645 37.6951 71.9503C37.5126 71.8361 37.1418 71.6536 36.5815 71.4035C36.0565 71.1715 35.6626 70.9486 35.4005 70.7347C35.1377 70.5209 34.9282 70.2726 34.7714 69.9892C34.6146 69.7053 34.5362 69.3736 34.5362 68.9948C34.5362 68.2801 34.7939 67.7182 35.3092 67.3092C35.8246 66.9002 36.5365 66.696 37.4458 66.696C37.8924 66.696 38.3184 66.7455 38.7238 66.8452C39.1293 66.9449 39.5534 67.0845 39.9961 67.2651L39.4082 68.5967C38.95 68.4202 38.5709 68.2964 38.2708 68.2263C37.9707 68.1562 37.6764 68.1212 37.3867 68.1212C37.0416 68.1212 36.7775 68.1967 36.5931 68.3477C36.4087 68.4988 36.3168 68.6957 36.3168 68.9392C36.3168 69.0902 36.354 69.2219 36.4286 69.3343C36.5031 69.4467 36.6214 69.5554 36.7839 69.6606C36.9465 69.7657 37.3314 69.9542 37.9386 70.2272C38.7418 70.5885 39.2925 70.9504 39.59 71.3129C39.8875 71.6754 40.036 72.1188 40.036 72.6456V72.6456ZM44.9085 74.8888H43.0869V68.236H40.7537V66.8102H47.2417V68.236H44.9085V74.8888ZM50.3858 71.789V74.8888H48.5641V66.8102H51.0676C52.2351 66.8102 53.0987 67.0102 53.659 67.4095C54.2193 67.8094 54.4995 68.4166 54.4995 69.2304C54.4995 69.7059 54.3607 70.1282 54.0825 70.4985C53.8042 70.8688 53.4104 71.1588 52.9014 71.3685C54.1943 73.1845 55.0367 74.3578 55.4287 74.8882H53.4071L51.3561 71.7884H50.3858V71.789ZM50.3858 70.3964H50.9737C51.5495 70.3964 51.9749 70.3064 52.2492 70.1257C52.5236 69.9451 52.6605 69.6612 52.6605 69.2745C52.6605 68.8915 52.5204 68.619 52.2402 68.4565C51.9601 68.2946 51.5263 68.2136 50.9384 68.2136H50.3858V70.3964V70.3964ZM61.7695 74.8888L61.1462 72.9658H58.0137L57.3904 74.8888H55.4274L58.4596 66.7776H60.6868L63.7313 74.8888H61.7695V74.8888ZM60.7112 71.5292C60.1355 69.7868 59.811 68.8015 59.7384 68.5731C59.6657 68.3447 59.6143 68.1641 59.5829 68.0318C59.4537 68.503 59.0836 69.669 58.4719 71.5292H60.7112ZM70.7494 69.3301C70.7494 70.1995 70.4602 70.8646 69.8826 71.3244C69.3049 71.7853 68.4831 72.0155 67.417 72.0155H66.6357V74.8888H64.814V66.8102H67.5584C68.6006 66.8102 69.3929 67.021 69.9359 67.4427C70.4782 67.865 70.7494 68.4939 70.7494 69.3301V69.3301ZM66.6357 70.6121H67.2352C67.7955 70.6121 68.2145 70.5082 68.4927 70.2997C68.7709 70.0913 68.9097 69.7886 68.9097 69.3911C68.9097 68.9893 68.7928 68.6927 68.5602 68.5012C68.3269 68.3097 67.9613 68.2136 67.4639 68.2136H66.635V70.6121H66.6357ZM42.1436 33.0825C40.8694 32.688 39.0348 32.6239 36.64 32.6239H28.0386V44.7069H37.307C38.9147 44.7069 40.0437 44.5564 40.6939 44.4429C41.8396 44.2507 42.7977 43.881 43.5675 43.4303C44.3373 42.9808 44.9702 42.3012 45.4663 41.4409C45.9617 40.5805 46.2104 39.5758 46.2104 38.4497C46.2104 37.1303 45.8512 36.0452 45.1328 35.0725C44.4151 34.0993 43.4184 33.4764 42.1436 33.0825ZM40.8225 27.8796C42.0883 27.5255 43.0425 26.8851 43.6832 26.0653C44.3251 25.2455 44.6457 24.1906 44.6457 22.9515C44.6457 21.7777 44.3463 20.7313 43.7474 19.8378C43.1486 18.9448 42.2933 18.3389 41.1823 18.009C40.0694 17.6804 38.1622 17.5203 35.4596 17.5203H28.0386V28.3949H36.0752C38.2824 28.3949 39.8644 28.1538 40.8225 27.8796V27.8796ZM69.8055 8.53418C69.8055 3.82062 65.7412 0 60.7279 0H10.7709C5.75756 0 1.69332 3.82062 1.69332 8.53418V55.5054C1.69332 60.2189 5.75756 64.0396 10.7709 64.0396H60.7279C65.7412 64.0396 69.8055 60.2189 69.8055 55.5054V8.53418V8.53418ZM50.2521 43.0575C49.5087 44.4809 48.5885 45.5787 47.4942 46.3508C46.3993 47.1223 45.0261 47.8285 43.3754 48.2224C41.7246 48.6169 39.7018 48.9359 37.307 48.9359H22.898V13.2912H37.0763C39.9505 13.2912 42.2547 13.6658 43.991 14.3811C45.7278 15.097 47.0869 16.2062 48.0719 17.6937C49.055 19.1817 49.5472 20.7422 49.5472 22.3667C49.5472 23.8783 49.1103 25.3035 48.239 26.6386C47.3664 27.9738 46.0491 29.0522 44.2872 29.872C46.5619 30.4991 48.3116 31.5703 49.5344 33.0819C50.7572 34.5941 51.3689 36.3793 51.3689 38.4382C51.3683 40.0948 50.9969 41.6348 50.2521 43.0575V43.0575Z" fill="#5B4282"/>
</svg>
