<svg width="86" height="70" viewBox="0 0 86 70" fill="none" xmlns="http://www.w3.org/2000/svg">
<path d="M25.5315 62.3321C22.2905 59.978 18.8369 57.727 16.4779 54.5539C11.5101 48.9556 7.68463 42.477 5.07056 35.6649C3.4899 31.2363 2.94531 26.4865 0.910374 22.2271C-1.2202 19.1374 1.27698 15.7534 4.94836 14.7726C6.58215 14.4832 9.45391 13.0561 5.98443 14.0762C2.87624 16.1801 2.57604 12.1635 5.76393 11.9085C7.94232 11.6387 8.73929 9.99577 7.99545 8.51958C5.65767 7.11204 13.6593 5.56964 9.6319 3.46814C5.43983 -0.700525 15.4976 -1.50483 13.0164 3.23764C12.4266 6.88154 20.0457 2.56575 18.2764 6.77855C20.0749 8.80158 25.0081 7.23955 24.8833 10.0767C27.5027 10.2434 28.4006 12.2763 30.8606 12.4308C33.4109 13.4925 38.0253 14.3287 38.8914 16.9795C36.3676 18.826 30.5152 13.1664 30.2309 18.2792C30.996 25.8318 30.7995 33.61 33.7908 40.8022C35.2067 45.1548 38.639 48.5829 41.7339 51.9742C44.7013 55.2944 48.7207 57.6338 52.8118 59.6004C56.4035 61.1649 60.2768 62.1997 64.1899 62.852C65.7759 61.7313 68.5812 57.5651 71.0545 59.3209C71.174 61.2973 66.1398 63.4503 70.8154 63.2321C73.5649 62.467 75.4697 65.1938 77.7304 62.7318C79.8159 65.0123 86.3909 61.2777 84.9112 65.9343C82.9054 67.1285 79.9806 66.4076 77.9722 68.0505C74.6594 66.5228 72.0215 69.4164 68.3554 69.051C64.2829 69.7254 60.1413 69.9951 56.013 70C49.2387 69.5096 42.3237 69.2987 35.8815 67.1212C32.2499 66.1477 28.7087 64.2399 25.5208 62.3297L25.5315 62.3321ZM31.2511 64.62C34.7949 66.0324 38.2644 67.5233 42.143 67.9745C48.3063 68.7641 54.6687 69.9853 60.8532 68.872C58.0532 67.7048 55.1602 69.3257 52.3708 68.0383C49.0235 68.7004 45.4637 67.8666 42.0102 67.4571C38.1449 65.8681 33.9714 64.7745 30.3532 62.7097C25.829 61.1845 32.6909 64.6666 33.913 64.9486C36.7396 66.4297 30.8048 64.2129 29.9653 63.5754C27.5956 62.3493 27.2954 62.6043 29.7315 63.85L31.2192 64.62H31.2511ZM24.5034 60.2208C27.9383 61.3978 24.4874 57.9893 22.9174 58.1855C22.2214 57.0698 20.2529 56.3636 21.6423 55.7652C19.1451 56.5646 19.0282 52.7246 17.8566 53.2739C15.216 52.5039 16.8285 49.7771 13.6858 48.0998C13.3989 46.3343 10.5617 44.8066 9.65846 42.146C9.25998 40.7826 6.45198 36.8738 8.1761 40.5128C9.64252 44.0194 12.2247 47.0184 14.3765 50.0149C16.0449 52.8692 18.016 55.8511 21.0552 57.6338C22.0806 58.5411 23.0688 59.9315 24.514 60.2159L24.5034 60.2208ZM14.6103 50.1915C14.7299 49.7133 15.2373 51.2263 14.6103 50.1915V50.1915ZM28.6184 61.6259C29.3782 61.312 27.5239 61.2286 28.6184 61.6259V61.6259ZM30.478 62.2536C30.2841 61.388 29.6279 62.7392 30.478 62.2536V62.2536ZM32.8158 63.1511C33.9262 62.1752 31.1023 62.5381 32.8158 63.1511V63.1511ZM36.8166 65.2109C37.4914 64.2914 34.6568 64.8676 36.8166 65.2109V65.2109ZM29.1391 60.2699C30.8659 59.2399 26.9076 60.2551 29.1391 60.2699V60.2699ZM30.8924 61.0791C30.8393 60.5347 30.2681 61.3243 30.8924 61.0791V61.0791ZM39.6405 66.1207C41.0485 66.9397 47.8546 67.9157 43.5935 66.4566C42.8762 66.594 35.6902 64.5783 39.6405 66.1207ZM25.752 56.1355C25.6191 55.5911 23.5683 55.5323 25.752 56.1355V56.1355ZM29.8245 58.3277C30.8871 57.6411 27.6249 57.8005 29.8245 58.3277V58.3277ZM33.278 60.2895C34.8003 59.7598 30.8127 59.7574 33.278 60.2895V60.2895ZM24.089 54.4656C25.736 55.6328 30.7463 54.6127 26.6127 53.7692C24.7345 52.8447 20.5026 52.2121 23.3876 54.3258L24.0863 54.4656H24.089ZM35.5653 60.9319C36.2561 59.853 32.6803 60.314 35.5653 60.9319V60.9319ZM32.0773 58.3743C36.1153 59.4288 28.6848 56.0203 31.0811 57.982L31.6124 58.2027L32.0773 58.3694V58.3743ZM39.0694 62.1016C42.8948 62.1359 35.6158 61.6112 39.0694 62.1016V62.1016ZM22.6172 52.423C22.4684 51.7658 21.6741 52.4769 22.6172 52.423V52.423ZM45.5355 65.4488C45.6364 64.262 44.2869 66.3316 45.5355 65.4488V65.4488ZM29.1444 56.1061C28.9133 55.4808 27.949 56.0816 29.1444 56.1061V56.1061ZM22.9812 52.011C25.1755 51.8884 19.9792 51.1184 22.9812 52.011V52.011ZM15.6836 47.6609C15.4099 46.6898 13.298 45.9149 15.6836 47.6609V47.6609ZM34.8428 58.8844C34.4443 58.4602 34.6568 58.9751 34.8428 58.8844V58.8844ZM46.7654 65.6401C46.7283 64.9927 46.1172 65.8853 46.7654 65.6401V65.6401ZM33.7881 57.879C34.0006 57.0453 31.9152 57.6264 33.7881 57.879V57.879ZM24.9045 52.6804C26.5383 52.521 22.2878 51.6628 24.9045 52.6804V52.6804ZM39.9301 61.2998C42.4751 60.3679 37.4515 60.8461 39.9301 61.2998V61.2998ZM32.1145 56.4028C35.0447 56.751 28.6264 54.5637 31.4689 56.2066L32.1145 56.4028ZM42.3024 62.185C45.0387 60.6769 44.1354 65.7234 46.9461 62.6117C49.7169 60.7431 44.5552 64.9216 47.9662 62.9452C50.4368 61.4199 54.0843 63.6685 56.3875 64.3993C58.0452 64.3257 59.6551 65.7234 61.3553 64.8725C64.6229 64.0584 54.9583 63.6661 57.4927 62.2242C54.5014 63.0285 52.2911 61.2679 50.8167 59.4974C47.4588 58.7814 43.5802 57.1973 41.9039 54.4558C41.2212 53.4259 42.8869 54.6029 41.3142 52.9183C39.2952 51.2582 38.2857 49.3725 36.9255 47.3519C35.305 46.5549 35.1111 44.2033 34.949 47.2734C34.9623 45.3362 32.9911 44.0292 32.505 44.5712C32.497 42.7075 34.6169 43.6393 33.1319 42.2612C32.8131 40.324 31.7611 38.3133 31.4477 36.1259C30.9562 35.0715 31.3786 32.8155 29.774 35.2015C29.1896 37.7198 29.5801 32.1069 30.4913 33.9558C31.6868 32.0676 30.0609 32.2883 29.9972 32.5507C30.7755 30.9568 30.4913 28.6959 29.7926 29.5591C30.207 27.8671 30.4488 23.3429 29.1736 24.1447C29.944 22.3792 30.6401 16.06 27.2822 18.468C25.922 18.4851 23.5683 18.9241 22.4552 19.4341C25.9432 21.2095 22.1045 20.0766 20.6806 19.7921C20.4946 21.4351 19.0866 20.724 17.3333 20.7411C20.144 21.0599 15.9652 23.3894 14.3579 22.4871C12.2646 23.4091 16.1644 25.7141 14.3978 26.4277C14.6156 27.4993 11.1913 26.0402 11.4596 28.5218C9.43 27.7322 11.1807 31.4644 12.1981 30.2015C15.6517 31.0647 14.6289 33.0313 14.7166 34.9023C14.1534 35.9911 11.9378 32.3423 14.2225 32.5115C12.416 29.8067 12.23 31.5306 10.7291 32.791C10.3837 32.8817 14.5545 34.5811 11.9351 35.4148C14.2384 35.7434 14.3048 37.6046 14.7724 38.7792C16.1538 40.1107 15.8695 37.3079 17.5272 38.9091C16.4779 37.4869 11.975 34.895 15.6012 35.7213C15.5826 34.2893 14.945 33.1319 16.0581 33.1588C17.1606 31.3197 14.9052 37.6953 17.3864 35.356C18.0718 35.0789 18.2445 33.5168 19.4771 35.5031C21.2677 37.1313 20.1254 38.3084 17.5963 36.8174C18.0479 38.2348 20.9781 38.7399 20.4255 40.9542C21.01 42.9037 21.8256 42.1852 22.5375 42.0724C23.0688 43.9655 23.4142 42.5726 23.4408 41.6727C25.9964 42.1779 25.396 43.5731 26.1983 44.5466C27.9596 45.2823 23.6745 39.5737 26.703 42.8301C29.8829 45.4785 27.8985 46.5893 25.0427 46.1651C26.8491 46.0302 27.4336 48.421 29.6917 48.3352C31.7532 49.2425 33.1452 52.7172 29.596 51.268C28.366 50.243 24.0013 48.9777 27.5664 50.9247C30.8552 52.3322 33.4693 53.1709 36.6413 54.9389C38.91 56.4102 39.8902 58.1463 40.751 58.4871C38.8436 59.3282 35.0022 57.8152 37.8287 57.3518C36.0488 57.0526 34.0458 56.2238 35.7513 58.2689C37.2018 59.3871 40.8865 59.2694 41.5479 59.3969C40.9901 60.5347 40.0257 60.623 41.5692 60.7137C39.8477 61.5621 42.1218 61.6946 42.2812 62.1776L42.3024 62.185ZM38.7798 53.0041C37.7305 51.9914 37.4595 50.0983 38.5938 51.7462C39.1783 51.962 40.4534 54.8432 38.7798 53.0041ZM50.2562 59.7009C50.9097 59.6617 50.2748 60.1595 50.2562 59.7009V59.7009ZM37.1327 50.4931C37.0902 48.963 37.51 51.6701 37.1327 50.4931V50.4931ZM35.9904 49.0782C34.6701 46.7241 37.6508 49.7403 35.9904 49.0782V49.0782ZM22.1709 40.2505C22.9466 40.0592 22.5535 41.4716 22.1709 40.2505V40.2505ZM33.1691 45.7531C33.6473 44.1028 33.7004 47.1361 33.1691 45.7531V45.7531ZM25.3986 40.7654C24.8514 39.8581 26.541 41.6188 25.3986 40.7654V40.7654ZM32.0666 42.7369C30.8181 40.1548 32.9539 41.327 32.3456 43.1587L32.0666 42.7369ZM20.569 35.66C20.0377 34.8116 19.0893 32.3251 19.3868 31.5649C19.6525 32.8008 22.2347 36.8861 20.6514 33.2814C18.9033 30.2408 22.7421 34.2672 23.1379 35.0274C23.3239 35.7802 22.0593 34.8214 22.9148 36.5918C21.3527 34.5762 21.9929 37.7051 20.5717 35.6846L20.569 35.66ZM17.0172 33.3991C17.1633 31.4276 17.8301 34.7478 17.0172 33.3991V33.3991ZM18.6164 33.9092C19.3789 32.4232 19.9075 35.9813 18.6164 33.9092V33.9092ZM14.7378 31.2118C13.4149 29.998 12.4585 28.8823 14.8016 30.459C15.7048 30.4909 12.7959 27.9161 15.0194 29.64C17.3572 30.0323 16.1724 33.1784 14.7405 31.2094L14.7378 31.2118ZM16.7568 31.1628C17.5272 30.459 17.1659 31.8543 16.7568 31.1628V31.1628ZM18.0001 31.5306C16.8312 29.5149 19.4134 32.3766 18.0001 31.5306V31.5306ZM15.5295 29.3531C11.6828 26.1898 20.3644 31.0034 16.1564 29.9416L15.5295 29.3531ZM26.5489 35.2628C24.8833 34.3432 26.1053 28.7793 26.6738 32.5826C28.2943 32.0995 26.5835 34.5492 27.7896 34.5247C27.6036 36.0695 27.059 36.6262 26.5489 35.2603V35.2628ZM30.6241 37.4869C30.7835 35.8096 30.9695 38.6345 30.6241 37.4869V37.4869ZM29.9175 36.8395C30.1034 36.1235 29.9334 37.6831 29.9175 36.8395V36.8395ZM16.3105 28.3134C13.8399 25.1673 23.4912 31.4963 17.8938 29.1103C17.3094 28.9681 16.6054 28.9191 16.3105 28.3134ZM24.1607 32.1534C23.9269 29.5051 24.6814 32.5948 24.1607 32.1534V32.1534ZM30.1194 35.6846C30.579 34.1765 30.1539 36.6826 30.1194 35.6846V35.6846ZM16.6904 27.1118C18.1595 26.8225 22.8005 29.4904 18.5367 27.872C18.0665 27.3914 17.0597 27.6096 16.6904 27.1118ZM29.2985 32.9136C29.4579 30.204 30.1752 31.2952 29.3038 33.306L29.2985 32.9136ZM17.7823 26.1702C18.3826 25.361 16.1936 22.5091 18.0957 25.1476C18.8927 25.7509 20.4787 26.1579 19.1052 26.413C21.2703 28.1785 18.5739 26.8911 17.7849 26.1677L17.7823 26.1702ZM28.6742 32.0701C29.086 28.9804 29.0382 33.8773 28.6742 32.0701V32.0701ZM16.5337 23.3208C16.9906 23.1393 16.7728 23.8848 16.5337 23.3208V23.3208ZM19.3762 24.8828C20.1068 23.4655 20.7257 26.462 19.3762 24.8828V24.8828ZM27.3911 28.9975C27.3858 28.458 27.5425 29.7896 27.3911 28.9975V28.9975ZM26.9262 28.051C25.8157 25.5179 27.9888 29.3923 26.9262 28.051V28.051ZM26.2434 26.3884C26.0575 25.3414 26.881 27.7028 26.2434 26.3884V26.3884ZM27.3539 24.721C26.5888 23.4802 28.3182 19.2527 28.5121 21.8765C27.7072 23.9216 28.281 25.0643 28.8389 22.3179C29.875 20.16 28.6158 26.5772 27.3512 24.721H27.3539ZM28.4962 18.4287C28.8283 18.0511 28.5706 18.8824 28.4962 18.4287V18.4287ZM26.5861 53.1292C26.1345 52.7614 26.6446 53.3597 26.5861 53.1292V53.1292ZM30.5179 54.9634C32.7042 55.4832 32.6962 54.6495 30.7171 54.3994C29.6545 53.4872 26.3019 52.5186 29.3038 54.2866C29.5004 54.777 30.1273 54.7402 30.5179 54.9609V54.9634ZM22.7607 50.2062C23.9641 51.0399 27.2954 52.5554 24.4768 50.525C25.4279 49.5049 22.6571 48.9605 23.5736 48.2788C21.2358 46.9547 21.7273 47.0527 23.3664 47.1189C20.5557 45.9591 23.7728 46.0474 23.6214 45.4515C22.5375 45.2553 18.2392 43.6859 20.7682 45.579C18.1967 44.3701 20.1572 46.0302 19.3789 45.8561C16.7223 45.194 21.7166 47.705 18.9618 47.0822C20.4681 48.1856 23.021 49.9095 19.5994 48.2494C19.1477 48.8477 22.0487 49.7575 22.7872 50.2111L22.7607 50.2062ZM26.8704 52.3886C31.8647 53.8746 24.4184 50.574 26.8704 52.3886V52.3886ZM47.9104 64.1541C47.9742 63.237 47.2277 64.9388 47.9104 64.1541V64.1541ZM50.0729 64.9952C51.2258 63.9652 50.1207 66.6381 51.9856 64.7426C52.0042 63.3865 51.9325 62.5847 49.8444 64.2325C49.2679 64.5268 49.0129 65.7774 50.0755 64.9927L50.0729 64.9952ZM15.742 45.0861C15.3887 43.8012 13.2608 43.8061 15.742 45.0861V45.0861ZM18.0532 46.4838C17.1952 45.1719 14.9929 45.2945 18.0532 46.4838V46.4838ZM31.1926 53.7986C32.4758 54.853 37.0849 54.571 32.7494 53.9286C32.1118 53.0532 28.6769 53.2665 31.1926 53.7986ZM49.252 64.0977C51.2258 62.5675 47.3393 64.7794 49.252 64.0977V64.0977ZM53.3591 66.7019C53.3723 66.2114 52.509 66.9152 53.3591 66.7019V66.7019ZM53.367 66.0153C55.5534 63.8819 51.2497 66.1379 53.367 66.0153V66.0153ZM10.0623 40.6967C8.20266 38.2446 8.904 37.1411 7.10815 35.1377C6.76811 33.6051 4.02653 30.128 5.68955 33.8136C7.21442 35.9715 7.66603 39.3064 10.0623 40.7041V40.6967ZM52.6737 65.3311C56.6984 62.9329 51.0266 64.2865 52.6737 65.3311V65.3311ZM55.7447 66.4419C57.7637 64.848 54.4695 66.1084 55.7447 66.4419V66.4419ZM15.0566 42.3765C15.6331 41.5844 13.5689 42.2735 15.0566 42.3765V42.3765ZM55.1044 65.6842C57.0543 64.5243 54.6528 64.7034 54.7511 65.7897L55.1044 65.6842ZM28.6397 50.2847C28.5732 49.5 27.6089 50.3509 28.6397 50.2847V50.2847ZM30.2735 51.1527C29.7528 50.1817 29.4765 51.3048 30.2735 51.1527V51.1527ZM58.2339 66.4664C60.731 64.799 56.7196 66.1477 57.7105 66.7852L58.2339 66.4664ZM57.2775 66.0398C59.3151 64.4655 55.1257 66.7362 57.2775 66.0398V66.0398ZM62.1656 69.0437C63.5311 68.2001 60.5052 68.7739 62.1656 69.0437V69.0437ZM16.3132 41.8002C18.1462 42.1779 23.632 45.964 20.3963 42.0626C18.7386 41.609 19.7322 37.8694 18.0399 38.5315C19.1743 40.2823 18.9697 41.0278 16.5895 39.9243C13.5955 38.5756 14.9078 40.5913 15.4923 41.1504C14.6953 41.3221 16.547 41.788 16.3158 41.8027L16.3132 41.8002ZM7.97154 35.7189C8.2983 34.4683 4.95102 28.8283 6.39088 32.894C6.90891 33.7449 6.85578 35.3584 7.97154 35.7189V35.7189ZM23.2893 44.4363C22.3436 43.708 23.2442 44.3333 23.2893 44.4363V44.4363ZM25.6112 44.9365C25.6112 43.6124 23.0449 44.3971 25.6112 44.9365V44.9365ZM45.74 56.648C45.3548 55.7407 44.2258 56.6284 45.74 56.648V56.648ZM46.707 57.3003C46.5636 56.7927 46.1757 57.3984 46.707 57.3003V57.3003ZM54.6847 61.9398C55.4551 61.4175 53.7283 61.8711 54.6847 61.9398V61.9398ZM12.1344 36.7046C14.3287 35.92 9.78332 36.1456 12.1344 36.7046V36.7046ZM43.9601 55.2135C43.9335 53.9016 42.5601 55.5396 43.9601 55.2135V55.2135ZM11.2657 34.8361C12.6737 34.3947 9.96397 34.5467 11.2657 34.8361V34.8361ZM15.3568 36.6654C15.3302 36.2338 14.9238 36.8297 15.3568 36.6654V36.6654ZM65.2685 64.9142C67.0802 64.5758 71.2139 65.7651 71.8833 64.4728C69.6784 64.4238 64.2669 63.0383 64.0119 64.8014L64.4901 64.875L65.2685 64.9191V64.9142ZM16.6585 36.9695C16.6904 35.6404 15.5375 36.9204 16.6585 36.9695V36.9695ZM5.89942 30.0789C5.41061 27.5483 4.03982 29.6964 5.89942 30.0789V30.0789ZM8.46301 30.6748C8.49489 29.8607 6.1146 29.9441 8.46301 30.6748V30.6748ZM9.92943 31.3369C9.50438 31.0181 9.60002 31.7366 9.92943 31.3369V31.3369ZM19.1557 36.7978C19.5914 36.43 18.1276 36.5281 19.1557 36.7978V36.7978ZM8.95447 29.8337C8.70475 27.921 5.97911 29.5468 8.95447 29.8337V29.8337ZM3.69446 26.6827C3.62008 25.7999 3.18174 27.0162 3.69446 26.6827V26.6827ZM4.47815 26.1383C4.35063 25.0912 3.80604 26.2707 4.47815 26.1383V26.1383ZM8.80039 28.5169C10.6281 27.8548 5.47171 27.1437 8.42847 28.3943L8.80039 28.5169ZM66.6552 61.5155C67.8241 60.5249 65.1675 61.209 66.6552 61.5155V61.5155ZM73.642 64.8578C74.1122 63.5827 72.4598 65.0295 73.642 64.8578V64.8578ZM9.23873 26.4375C9.43265 25.1991 7.78824 26.6827 9.23873 26.4375V26.4375ZM3.08611 22.6366C2.762 20.8833 2.80982 17.8181 5.96583 18.853C1.74985 19.6278 8.88806 23.6935 7.98482 20.4812C9.75941 20.5621 11.4543 19.5126 10.5218 21.1016C14.0206 20.7509 16.438 17.9506 19.8172 18.3454C22.4738 18.0217 25.3216 17.7814 28.1588 16.8005C30.4886 16.646 32.7281 14.3312 31.453 12.958C28.2757 12.7128 24.9497 13.0757 21.4377 13.7231C17.5458 14.4685 14.0126 15.8883 10.0862 16.494C6.26071 16.9697 10.8566 17.801 9.75941 17.9898C7.76698 18.6274 12.1424 19.0589 9.50173 19.7357C7.87059 19.4488 6.17304 18.9314 6.87172 17.3449C3.20565 17.7863 -0.016769 19.1889 2.88155 22.6317L3.09408 22.6342L3.08611 22.6366ZM11.9272 18.5048C12.7852 15.5818 16.531 20.9079 13.3352 18.8971C12.9553 18.6323 12.3257 18.4189 11.9272 18.5048ZM12.0945 17.0874C13.3352 16.2365 12.7534 17.5656 12.0945 17.0874V17.0874ZM13.6699 17.1119C13.7841 15.7681 17.2775 17.8476 14.2464 17.595L13.6699 17.1119ZM15.8217 16.3125C16.6107 15.4616 16.0502 17.0653 15.8217 16.3125V16.3125ZM16.3743 15.9692C17.6866 14.5151 23.7941 15.0374 19.2965 15.827C18.101 14.9933 17.1792 16.3174 16.3743 15.9692ZM24.344 14.8339C24.1474 10.8614 28.3076 16.2439 24.344 14.8339V14.8339ZM26.6074 14.8216C27.4309 12.8207 29.8218 14.0173 26.9926 14.4195C27.0537 14.6328 26.9076 15.4543 26.6074 14.8216ZM8.34877 25.4321C10.8194 24.0344 5.72674 24.2207 8.34877 25.4321V25.4321ZM10.1765 25.9225C11.0425 25.0716 8.31689 25.5792 10.1765 25.9225V25.9225ZM4.79428 22.3546C6.20226 21.3493 3.12064 21.9746 4.79428 22.3546V22.3546ZM77.7703 64.4949C77.8101 63.3326 76.6917 65.0172 77.7703 64.4949V64.4949ZM70.3585 59.8236C70.571 58.4871 69.4021 59.9388 70.3585 59.8236V59.8236ZM79.8159 64.9486C81.7897 64.9559 85.7984 64.3846 81.5028 64.3846C80.828 64.4827 77.571 64.4581 79.8159 64.9486ZM11.789 25.0594C13.3883 24.9613 14.2862 23.4336 11.4782 23.5194C7.12144 23.1025 15.3196 24.8975 10.9469 24.3826C10.3571 24.743 11.7811 25.1574 11.8156 25.0569L11.789 25.0594ZM13.197 25.7165C13.0297 24.77 12.7029 26.2192 13.197 25.7165V25.7165ZM14.8707 21.6067C15.5614 20.8122 13.9143 21.3934 14.8707 21.6067V21.6067ZM9.55751 13.4067C12.4107 12.5117 16.3105 11.5063 17.6601 13.8481C16.2893 12.3278 17.1075 10.8271 18.4039 13.0536C20.2369 15.3047 21.1508 12.0286 19.9606 11.2733C21.3155 12.828 22.8563 13.5637 20.8692 11.3714C23.0343 8.96832 16.539 11.6853 15.0619 11.6583C14.3526 11.9526 7.72979 13.2179 9.56283 13.4067H9.55751ZM11.2312 10.4519C12.857 9.31898 16.8578 11.1262 14.2915 9.32388C14.0391 9.12036 8.67287 10.6897 11.2312 10.4519ZM17.1606 10.6775C19.0627 10.7216 16.3371 8.31605 18.6058 9.40726C18.2339 8.28417 15.9652 8.07574 14.8547 7.62454C14.2278 8.64954 16.1299 10.6897 17.158 10.6775H17.1606ZM12.2725 5.70941C12.9314 4.88548 11.1169 6.12627 12.2725 5.70941V5.70941ZM14.6847 6.24398C17.753 5.8688 13.9037 5.02526 14.0657 6.21455L14.6847 6.24398ZM10.1579 2.98261C7.99811 0.378423 14.2225 3.4191 12.0255 0.694751C10.1765 -0.66129 8.40456 2.2249 10.1579 2.98261V2.98261ZM37.8766 16.7637C38.8675 15.1453 33.7854 14.5813 37.2124 16.1899C37.5259 16.288 37.4568 16.8765 37.8766 16.7637Z" fill="#100F10"/>
</svg>
