<svg width="86" height="85" viewBox="0 0 86 85" fill="none" xmlns="http://www.w3.org/2000/svg">
<g clip-path="url(#clip0)">
<path d="M83.9496 38.7147L46.8391 1.60418C46.331 1.09578 45.7276 0.692487 45.0636 0.41733C44.3995 0.142173 43.6878 0.000549316 42.969 0.000549316C42.2502 0.000549316 41.5384 0.142173 40.8743 0.41733C40.2103 0.692487 39.607 1.09578 39.0988 1.60418L31.3957 9.30731L41.1707 19.0823C43.4444 18.2854 46.0476 18.83 47.8591 20.6415C48.7215 21.5054 49.3235 22.5944 49.5964 23.7842C49.8693 24.9739 49.802 26.2164 49.4024 27.3698L58.8241 36.7915C61.1032 36.0053 63.7329 36.5126 65.5524 38.3375C66.1573 38.9425 66.637 39.6607 66.9643 40.4512C67.2916 41.2416 67.46 42.0888 67.4599 42.9443C67.4597 43.7999 67.2911 44.647 66.9636 45.4373C66.6361 46.2277 66.1561 46.9458 65.5511 47.5507C64.946 48.1555 64.2278 48.6353 63.4373 48.9626C62.6469 49.2899 61.7997 49.4582 60.9442 49.4581C60.0887 49.458 59.2416 49.2894 58.4512 48.9619C57.6608 48.6343 56.9427 48.1544 56.3379 47.5493C54.4254 45.6368 53.9526 42.8212 54.9194 40.4651L46.1326 31.6782V54.8009C46.7704 55.1166 47.3534 55.5327 47.8591 56.0334C48.464 56.6383 48.9438 57.3563 49.2711 58.1466C49.5985 58.9369 49.767 59.7839 49.767 60.6393C49.767 61.4947 49.5985 62.3418 49.2711 63.132C48.9438 63.9223 48.464 64.6404 47.8591 65.2453C47.2543 65.8501 46.5362 66.3299 45.7459 66.6573C44.9556 66.9846 44.1086 67.1531 43.2532 67.1531C42.3978 67.1531 41.5508 66.9846 40.7605 66.6573C39.9702 66.3299 39.2521 65.8501 38.6472 65.2453C38.0417 64.6408 37.5612 63.9229 37.2335 63.1325C36.9057 62.3422 36.7369 61.495 36.7369 60.6393C36.7369 59.7837 36.9057 58.9365 37.2335 58.1461C37.5612 57.3558 38.0417 56.6379 38.6472 56.0334C39.2768 55.4065 39.9754 54.9311 40.7802 54.6123V31.2745C40.0046 30.9557 39.2768 30.4856 38.6472 29.8534C37.7326 28.9399 37.1108 27.7747 36.861 26.5064C36.6112 25.2381 36.7448 23.9241 37.2447 22.732L27.6026 13.0951L2.15568 38.5154C1.64689 39.0236 1.24325 39.6271 0.967861 40.2914C0.692469 40.9557 0.55072 41.6678 0.55072 42.3869C0.55072 43.106 0.692469 43.8181 0.967861 44.4824C1.24325 45.1467 1.64689 45.7502 2.15568 46.2584L39.2688 83.3662C39.777 83.8746 40.3803 84.2779 41.0443 84.5531C41.7084 84.8282 42.4202 84.9698 43.139 84.9698C43.8578 84.9698 44.5695 84.8282 45.2336 84.5531C45.8976 84.2779 46.501 83.8746 47.0091 83.3662L83.9496 46.4842C84.4584 45.976 84.862 45.3725 85.1374 44.7082C85.4128 44.0439 85.5546 43.3318 85.5546 42.6127C85.5546 41.8936 85.4128 41.1815 85.1374 40.5172C84.862 39.8529 84.4584 39.2494 83.9496 38.7412" fill="#F03C2E"/>
</g>
<defs>
<clipPath id="clip0">
<rect width="85" height="85" fill="white" transform="translate(0.553162)"/>
</clipPath>
</defs>
</svg>
