<svg width="86" height="85" viewBox="0 0 86 85" fill="none" xmlns="http://www.w3.org/2000/svg">
<path d="M1.55554 0.934998H84.6855V84.0657H1.55554V0.934998Z" fill="#F0DB4F"/>
<path d="M77.8822 64.2387C77.2733 60.4463 74.8003 57.2608 67.4751 54.2904C64.9304 53.121 62.0935 52.2836 61.2481 50.3552C60.948 49.2329 60.9081 48.6007 61.0981 47.9214C61.6433 45.7167 64.2749 45.0294 66.3608 45.6616C67.7042 46.1118 68.9758 47.1471 69.7428 48.7986C73.3301 46.4757 73.3228 46.491 75.8276 44.8946C74.9106 43.4728 74.4212 42.8167 73.8208 42.2085C71.6633 39.7986 68.7235 38.5574 64.0219 38.6524L61.5729 38.9692C59.2261 39.5622 56.9895 40.794 55.678 42.4455C51.7428 46.9107 52.865 54.7254 57.6536 57.9414C62.3711 61.4822 69.3012 62.2877 70.1864 65.5987C71.0477 69.6522 67.2074 70.9644 63.3904 70.4982C60.5774 69.9132 59.0129 68.4834 57.3215 65.8836C54.2084 67.6852 54.2084 67.6852 51.0076 69.526C51.7667 71.1855 52.5642 71.9365 53.8365 73.3742C59.8583 79.4823 74.9272 79.1821 77.6299 69.9371C77.7395 69.6196 78.4673 67.5026 77.8822 64.2387V64.2387ZM46.7477 39.1418H38.9722L38.9403 59.2443C38.9403 63.5196 39.1614 67.4389 38.4661 68.6401C37.3286 71.0029 34.3808 70.71 33.0374 70.2518C31.6701 69.5798 30.9749 68.6242 30.1693 67.2735C29.9482 66.8857 29.7822 66.5855 29.7264 66.5623L23.4045 70.4338C24.4558 72.5913 26.0043 74.464 27.9879 75.6805C30.9509 77.4589 34.9333 78.0041 39.0983 77.0478C41.809 76.2583 44.1479 74.6227 45.3724 72.1331C47.1428 68.8692 46.7629 64.9187 46.747 60.5492C46.7868 53.4205 46.7477 46.2931 46.7477 39.1418Z" fill="#323330"/>
</svg>
