<svg width="65" height="65" viewBox="0 0 65 65" fill="none" xmlns="http://www.w3.org/2000/svg">
<circle cx="32.5" cy="32.5" r="32.5" fill="#1A1919"/>
<path d="M19 39.5C22.0376 39.5 24.5 37.0376 24.5 34C24.5 30.9624 22.0376 28.5 19 28.5C15.9624 28.5 13.5 30.9624 13.5 34C13.5 37.0376 15.9624 39.5 19 39.5Z" stroke="#F7F7FE" stroke-width="2.75" stroke-linecap="round" stroke-linejoin="round"/>
<path d="M41 28.5C44.0376 28.5 46.5 26.0376 46.5 23C46.5 19.9624 44.0376 17.5 41 17.5C37.9624 17.5 35.5 19.9624 35.5 23C35.5 26.0376 37.9624 28.5 41 28.5Z" stroke="#F7F7FE" stroke-width="2.75" stroke-linecap="round" stroke-linejoin="round"/>
<path d="M41 50.5C44.0376 50.5 46.5 48.0376 46.5 45C46.5 41.9624 44.0376 39.5 41 39.5C37.9624 39.5 35.5 41.9624 35.5 45C35.5 48.0376 37.9624 50.5 41 50.5Z" stroke="#F7F7FE" stroke-width="2.75" stroke-linecap="round" stroke-linejoin="round"/>
<path d="M23.95 31.6166L36.05 25.3833" stroke="#F7F7FE" stroke-width="2.75" stroke-linecap="round" stroke-linejoin="round"/>
<path d="M23.95 36.3833L36.05 42.6166" stroke="#F7F7FE" stroke-width="2.75" stroke-linecap="round" stroke-linejoin="round"/>
</svg>
