<svg width="86" height="85" viewBox="0 0 86 85" fill="none" xmlns="http://www.w3.org/2000/svg">
<path d="M42.679 1.32017C39.8753 1.33345 37.1992 1.57185 34.8431 1.98888C27.9036 3.21474 26.6446 5.78068 26.6446 10.5135V16.7629H43.0423V18.8461H20.49C15.7247 18.8461 11.5518 21.7102 10.2462 27.1608C8.74012 33.4063 8.67371 37.3044 10.2462 43.8262C11.4116 48.6811 14.1954 52.1395 18.9614 52.1395H24.5999V44.6476C24.5999 39.2348 29.2822 34.4609 34.8437 34.4609H51.2229C55.7823 34.4609 59.4214 30.7063 59.4214 26.1282V10.5141C59.4214 6.06954 55.6721 2.7313 51.2229 1.98954C48.4046 1.52072 45.482 1.30755 42.679 1.32017V1.32017ZM33.8111 6.34646C35.5045 6.34646 36.8884 7.75228 36.8884 9.4815C36.8884 11.2034 35.5052 12.596 33.8111 12.596C32.1111 12.596 30.7345 11.2034 30.7345 9.4815C30.7339 7.75228 32.1111 6.34646 33.8111 6.34646V6.34646Z" fill="url(#paint0_linear)"/>
<path d="M61.466 18.8461V26.1282C61.466 31.7727 56.6794 36.5241 51.2222 36.5241H34.8431C30.3567 36.5241 26.6446 40.3643 26.6446 44.8574V60.4728C26.6446 64.9161 30.5081 67.5305 34.8431 68.8048C40.0334 70.3302 45.0112 70.6064 51.2222 68.8048C55.35 67.6088 59.4207 65.2036 59.4207 60.4728V54.2227H43.0423V52.1388H67.6205C72.3859 52.1388 74.1629 48.8152 75.8204 43.8254C77.5323 38.6889 77.4586 33.749 75.8204 27.1601C74.6423 22.4154 72.3932 18.8454 67.6205 18.8454H61.466V18.8461ZM52.2535 58.389C53.9541 58.389 55.3307 59.7815 55.3307 61.5048C55.3307 63.2327 53.9535 64.6385 52.2535 64.6385C50.5601 64.6385 49.1769 63.2327 49.1769 61.5048C49.1769 59.7815 50.5601 58.389 52.2535 58.389Z" fill="url(#paint1_linear)"/>
<defs>
<linearGradient id="paint0_linear" x1="7.44777" y1="3.27426" x2="45.2686" y2="35.5277" gradientUnits="userSpaceOnUse">
<stop stop-color="#5A9FD4"/>
<stop offset="1" stop-color="#306998"/>
</linearGradient>
<linearGradient id="paint1_linear" x1="59.4983" y1="55.5769" x2="45.9351" y2="36.5568" gradientUnits="userSpaceOnUse">
<stop stop-color="#FFD43B"/>
<stop offset="1" stop-color="#FFE873"/>
</linearGradient>
</defs>
</svg>
