<svg width="86" height="55" viewBox="0 0 86 55" fill="none" xmlns="http://www.w3.org/2000/svg">
<path fill-rule="evenodd" clip-rule="evenodd" d="M22.0325 18.3333C24.8654 6.11159 31.9496 0 43.2825 0C60.2825 0 62.4075 13.75 70.9075 16.0417C76.5746 17.5699 81.5325 15.2783 85.7825 9.16667C82.9496 21.3884 75.8654 27.5 64.5325 27.5C47.5325 27.5 45.4075 13.75 36.9075 11.4583C31.2404 9.93008 26.2825 12.2217 22.0325 18.3333ZM0.782471 45.8333C3.61536 33.6116 10.6996 27.5 22.0325 27.5C39.0325 27.5 41.1575 41.25 49.6575 43.5417C55.3246 45.0699 60.2825 42.7783 64.5325 36.6667C61.6996 48.8884 54.6154 55 43.2825 55C26.2825 55 24.1575 41.25 15.6575 38.9583C9.99036 37.4301 5.03247 39.7217 0.782471 45.8333Z" fill="url(#paint0_linear)"/>
<defs>
<linearGradient id="paint0_linear" x1="0.782473" y1="-48.8884" x2="95.5494" y2="97.5686" gradientUnits="userSpaceOnUse">
<stop stop-color="#2383AE"/>
<stop offset="1" stop-color="#6DD7B9"/>
</linearGradient>
</defs>
</svg>
